<?xml version="1.0" encoding="utf-8"?>
<!-- Svg Vector Icons : http://www.onlinewebfonts.com/icon -->
<!DOCTYPE svg PUBLIC "-//W3C//DTD SVG 1.1//EN" "http://www.w3.org/Graphics/SVG/1.1/DTD/svg11.dtd">
<svg version="1.1" xmlns="http://www.w3.org/2000/svg" xmlns:xlink="http://www.w3.org/1999/xlink" x="0px" y="0px" viewBox="0 0 1000 1000" enable-background="new 0 0 1000 1000" xml:space="preserve">
<metadata> Svg Vector Icons : http://www.onlinewebfonts.com/icon </metadata>
<g><g transform="translate(0.000000,512.000000) scale(0.100000,-0.100000)"><path d="M4843.2,5107.1c-791.7-74.3-1382.1-242.4-2042.9-578.7C1834.6,4033.8,1013.5,3222.5,513,2262.6C313.6,1881.4,63.4,1209,104.5,1173.8c13.7-11.7,1925.6-527.8,1988.1-537.6c7.8,0,46.9,86,82.1,193.5C2595,2055.4,3689.8,2903.9,4985.9,3009.4c320.6,27.4,721.4-5.9,997-80.1c41.1-11.7,78.2-17.6,82.1-13.7c7.8,7.8,537.6,1984.2,537.6,2007.7c0,39.1-539.6,142.7-918.8,175.9C5476.6,5118.8,5003.5,5122.7,4843.2,5107.1z"/><path d="M6692.6,4223.5c-5.9-7.8-97.8-348-207.2-754.6c-109.5-408.6-207.2-774.1-219-813.2l-19.6-70.4l-140.7,45c-271.7,86-424.2,109.5-783.9,119.2c-297.2,7.8-389,3.9-586.5-29.3c-938.4-160.3-1734-750.7-2160.2-1603c-117.3-236.5-211.1-508.3-228.7-666.6c-5.9-66.5-19.6-125.1-27.4-131c-9.8-5.9-379.3,88-823,207.2c-443.8,117.3-817.2,215-828.9,215c-13.7,0-37.1-91.9-58.6-219c-31.3-179.8-37.1-320.6-35.2-758.5c0-498.5,3.9-557.1,52.8-801.5c91.9-477,201.4-801.5,404.7-1221.8c608-1255.1,1761.4-2179.7,3118.1-2498.4c396.8-93.8,631.4-119.3,1085-119.3c580.6,0,999,66.5,1524.8,246.3c289.3,97.7,795.6,348,1045.9,516.1c1108.4,742.9,1808.3,1822,2046.8,3149.4c60.6,340.2,64.5,1126,9.8,1462.3c-115.3,686.2-361.7,1317.6-737,1884.6c-492.7,746.8-1239.4,1370.4-2046.8,1710.6C6848.9,4188.2,6700.4,4239.1,6692.6,4223.5z M5511.8,2159c74.3-5.9,215-33.2,316.7-58.6c891.5-230.7,1571.7-959.9,1753.6-1876.7c35.2-179.9,35.2-680.3,0-860.2c-193.5-981.4-940.3-1730.1-1911.9-1917.8c-209.2-41.1-621.6-45-826.9-9.8c-961.8,168.1-1706.6,869.9-1937.3,1829.8c-62.6,260-66.5,484.8-19.6,844.5c58.6,441.8,146.6,678.4,375.3,1020.5c392.9,588.4,1057.6,977.5,1767.2,1038.1C5200.9,2182.5,5242,2182.5,5511.8,2159z"/><path d="M4784.6,1893.2C3996.7,1727,3361.4,1117.1,3148.3,321.4c-45-172-50.8-232.6-52.8-518.1c0-271.7,5.9-349.9,43-494.6c183.8-731.2,678.4-1288.3,1366.5-1536.6c469.2-172.1,1036.1-166.2,1503.3,15.6c365.5,140.8,762.4,453.5,983.3,774.1c338.2,486.8,465.2,1102.6,346,1661.7c-185.7,864.1-850.4,1515.1-1718.4,1681.2C5400.4,1946,5015.2,1940.1,4784.6,1893.2z M4632.1,1347.7c291.3-82.1,349.9-473.1,99.7-645.1c-58.6-41-95.8-48.9-203.3-48.9c-117.3,0-138.8,5.9-207.2,60.6c-232.6,185.7-175.9,529.8,101.7,629.5C4499.1,1371.2,4544.1,1371.2,4632.1,1347.7z M6370,1124.9c91.9-62.6,154.4-179.9,154.4-295.2c0-301-359.7-471.1-580.6-277.6c-80.1,70.4-142.7,191.6-142.7,277.6c0,129,127.1,305,246.3,342.1C6145.2,1203.1,6282,1181.6,6370,1124.9z M5482.5,385.9c131-48.9,267.8-179.8,334.3-324.5c45-93.8,52.8-136.8,52.8-277.6c-2-150.5-7.8-177.9-66.5-289.3c-123.2-226.8-316.7-344.1-568.9-346c-129,0-166.2,9.8-277.6,64.5c-549.3,269.8-463.3,1061.5,129,1208.2C5202.9,450.4,5341.7,438.7,5482.5,385.9z M3998.7-167.3c144.7-60.6,220.9-172,220.9-318.7c2-164.2-64.5-271.7-207.2-338.2c-150.5-70.4-328.4-25.4-430.1,107.5c-93.8,123.2-91.9,330.4,3.9,443.8C3687.8-151.7,3856-108.7,3998.7-167.3z M6651.5-448.8c121.2-54.8,224.8-203.3,224.8-324.5c0-62.6-48.9-175.9-103.6-238.5c-152.5-174-410.5-162.3-553.2,25.4c-74.3,97.7-88,261.9-29.3,373.4C6278.1-439,6477.5-368.7,6651.5-448.8z M5224.4-1269.9c146.6-66.5,238.5-224.8,218.9-377.3c-43-318.6-475-418.3-652.9-150.5c-45,68.4-54.7,103.6-54.7,203.3c0,152.5,56.7,244.4,193.5,312.8C5044.6-1223,5118.8-1221,5224.4-1269.9z"/></g></g>
</svg>